<svg width="1080" height="1080" viewBox="0 0 1080 1080" fill="none" xmlns="http://www.w3.org/2000/svg">
<rect width="1080" height="1080" fill="#FFA553"/>
<path d="M672.239 297.237C677.849 309.662 683.653 323.941 689.651 340.073C696.153 356.294 702.151 372.426 707.644 388.47C713.642 404.602 718.393 418.955 721.898 431.53L634.841 452.074C629.88 433.005 625.024 416.294 620.273 401.941C616.115 387.172 611.571 373.115 606.642 359.77C601.802 345.921 595.538 331.302 587.851 315.912L672.239 297.237ZM783.451 272.368C789.655 284.377 796.008 298.492 802.51 314.714C809.1 330.43 815.439 346.103 821.525 361.731C827.612 377.359 832.452 391.208 836.045 403.278L750.725 427.247C745.26 408.089 739.855 391.542 734.511 377.604C729.76 363.251 724.623 349.609 719.102 336.68C713.669 323.246 707.064 309.087 699.287 294.201L783.451 272.368ZM496.069 203.836C490.352 221.545 484.621 240.811 478.875 261.634C473.218 281.953 468.421 300.344 464.483 316.806C460.012 336.294 454.742 360.321 448.674 388.885C442.694 416.945 436.447 446.518 429.935 477.604C423.511 508.185 417.22 538.01 411.063 567.079C405.498 595.732 400.896 620.395 397.256 641.069C392.995 665.273 393.907 685.189 399.994 700.817C406.169 715.941 415.783 727.771 428.837 736.308C441.979 744.34 457.123 749.866 474.267 752.884C503.513 758.033 531.2 758.749 557.329 755.031C583.457 751.313 608.057 744.467 631.128 734.492C654.288 724.013 676.082 710.954 696.511 695.315C716.94 679.677 735.826 662.467 753.17 643.685L818.393 760.443C803.095 776.465 783.541 793.038 759.732 810.161C736.515 826.868 709.19 841.813 677.756 854.994C646.827 868.264 612.233 877.25 573.974 881.951C536.131 887.246 495.275 886.031 451.405 878.308C407.536 870.584 370.664 857.074 340.789 837.778C310.915 818.482 289.639 793.161 276.962 761.816C264.878 730.056 262.697 692.241 270.421 648.372C273.794 629.211 277.997 606.816 283.029 581.188C288.149 555.056 293.448 527.916 298.923 499.767C304.992 471.203 310.675 443.35 315.974 416.21C321.272 389.069 326.037 364.954 330.27 343.865C334.592 322.271 337.729 305.928 339.682 294.834C343.322 274.16 345.865 253.813 347.31 233.792C349.348 213.356 349.86 194.211 348.844 176.356L496.069 203.836Z" fill="#FFFFFE"/>
</svg>
